<svg xmlns="http://www.w3.org/2000/svg" viewBox="0 0 588.2 93"><defs><style>.cls-1{fill:#fff;}</style></defs><g id="Layer_2" data-name="Layer 2"><g id="Layer_1-2" data-name="Layer 1"><path class="cls-1" d="M129.2.9l-12.5.6,4.8,5.1,4.7,5.1V81.3l-3.5,4.8a41.8,41.8,0,0,0-3.5,5.4c0,.3,9.7.5,21.5.5s21.5-.3,21.5-.6a34.7,34.7,0,0,0-4-5.3l-4.1-4.8.3-10.7.3-10.6,19.5,16,19.5,16h17.7c13.6,0,17.8-.3,17.7-1.3,0-.6-7-6.9-15.4-14L198.3,64H185c-12.6-.1-13.4-.2-16-2.5a10.35,10.35,0,0,1-2.8-3c0-.3,6.2-.5,13.8-.5,11.6,0,14.4-.4,18.1-2.1a33.88,33.88,0,0,0,15.6-14c2.5-4.6,2.9-6.5,2.9-12.9.1-11.8-5.2-21.1-14.9-26.3C197.9.6,196.4.5,169.7.4,154.3.4,136.1.6,129.2.9ZM184.6,10a26.15,26.15,0,0,1,5.1,7.2c2,5.1,2.3,16.9.6,22-1.5,4.4-9.5,12.2-11.7,11.4-.9-.3-7.2-.6-14-.6H152.2V7h28.9Z"/><path class="cls-1" d="M262.2,1.4c0,.7,1.2,1.9,2.8,2.5s5.6,5,9,9.6c5,6.5,6.2,8.9,5.7,10.5-.4,1.2-7.5,15.9-15.7,32.6C249,86.9,248.9,87,245.1,88.2c-2.2.6-3.9,1.4-3.9,1.8,0,1.8,18.4,2.7,19.5.9.4-.5-.1-1.9-1.1-3-1.7-1.8-1.6-2.3,2.7-11.7l4.5-9.7,18.6-.3L304,66l5.6,8.5c6.2,9.6,7,12.9,3.1,13.9-1.4.4-2.5,1.3-2.5,2.1,0,1.3,3,1.5,21.7,1.3,13.9-.2,21.8-.7,22-1.3s-1.8-2-4.5-3.1c-4.1-1.8-5.3-2.9-7.9-8-1.8-3.2-12.3-22.3-23.6-42.4L297.5.5,279.8.2C265.2,0,262.2.2,262.2,1.4Zm30.2,44.4,6.7,11.7-7,.3c-3.8.2-10,.2-13.9,0l-7-.3,6.7-12.2c3.7-6.7,6.9-12,7.2-11.7S288.7,39.4,292.4,45.8Z"/><path class="cls-1" d="M364.4,1.7c.2,1.2,1.6,2,4.1,2.4,2.1.3,4.2,1,4.8,1.6s.8,16.3.7,40.9l-.3,39.9-4.7.9c-3.7.7-4.8,1.4-4.8,2.8,0,1.8,1.3,1.9,32.8,1.6l32.7-.3,7.8-3.7q24.15-11.55,27-36.9c1.3-10.8.1-18.3-4.4-27-5.3-10.6-12.6-17-24.4-21.4C429.2,0,428.7,0,396.6,0,366.3,0,364.1.1,364.4,1.7Zm55.3,7.4c2.4.7,5.7,2.9,8.3,5.4l4.3,4.3L432,45.7c-.3,26.2-.4,26.9-2.6,30a27.59,27.59,0,0,1-6.9,6c-3.9,2.2-5.8,2.7-12.4,2.7-4.2.1-7.9-.1-8.1-.4s-.2-17.5,0-38.3L402.4,8H409A51,51,0,0,1,419.7,9.1Z"/><path class="cls-1" d="M5.1,6.9l5.1,5.9V81.5L6.7,86.4c-1.9,2.7-3.5,5.3-3.5,5.8s9.7.8,21.5.8,21.5-.3,21.5-.6a33.15,33.15,0,0,0-4-5.4l-4-4.8V59H57.3c18.5,0,19.2-.1,24.7-2.7,12.2-5.7,18.6-15.2,18.5-27.4,0-11.2-6.3-21.6-15.8-26C81,1.2,77.5,1,40.4,1H0Zm64.1,4.9c4.5,4.4,6,9.2,6,18.6,0,8.3-2.4,14.2-7.5,18C64.5,50.9,63.8,51,50.3,51H36.2V8H65.4Z"/><path class="cls-1" d="M496.2,1.9c0,.5,1.2,1.4,2.8,2,3,1.3,15.2,16.5,15.2,19,0,.9-7.1,15.8-15.8,33.1-15,30.1-15.8,31.5-18.9,32.3-1.9.4-3.3,1.4-3.3,2.2,0,1.2,1.8,1.5,9.5,1.5,10,0,11.1-.6,7.9-4.2-1.6-1.7-1.4-2.4,2.8-11.1l4.6-9.4,7.7-.6c4.3-.4,12.7-.7,18.7-.7h10.8l5.5,8.4c6.2,9.4,6.9,13.2,3,14.2-1.4.3-2.5,1.2-2.5,2,0,1.2,3.9,1.4,22,1.4,17.9,0,22-.3,22-1.4,0-.7-2-2.1-4.4-3l-4.5-1.7L555.7,43.4,532,1H514.1C504.3,1,496.2,1.4,496.2,1.9Zm30.3,43.8,6.7,11.8-6.8.6c-9.9,1-21.4,1-21,.1,1.9-4.3,13.1-24.2,13.7-24.2C519.5,34,522.8,39.3,526.5,45.7Z"/></g></g></svg>