<svg xmlns="http://www.w3.org/2000/svg" viewBox="0 0 215 215"><defs><style>.cls-1{fill:#fff;}</style></defs><g id="Layer_2" data-name="Layer 2"><g id="Icons"><g id="Twitter"><circle id="Background" cx="107.5" cy="107.5" r="107.5"/><path id="Twitter-2" data-name="Twitter" class="cls-1" d="M89,154.6c41.26,0,63.82-34.18,63.82-63.82,0-1,0-1.93-.07-2.89a45.74,45.74,0,0,0,11.19-11.61,45,45,0,0,1-12.88,3.53,22.54,22.54,0,0,0,9.86-12.41,45,45,0,0,1-14.24,5.44A22.45,22.45,0,0,0,108.46,93.3,63.65,63.65,0,0,1,62.24,69.87a22.44,22.44,0,0,0,6.94,29.94A22.3,22.3,0,0,1,59,97v.28a22.44,22.44,0,0,0,18,22,22.33,22.33,0,0,1-10.12.38,22.44,22.44,0,0,0,20.95,15.58,44.86,44.86,0,0,1-33.19,9.29A63.37,63.37,0,0,0,89,154.58"/></g></g></g></svg>